<?xml version="1.0" encoding="UTF-8"?>
<svg id="Layer_1" xmlns="http://www.w3.org/2000/svg" version="1.1" viewBox="0 0 1080 556">
  <!-- Generator: Adobe Illustrator 29.3.1, SVG Export Plug-In . SVG Version: 2.1.0 Build 151)  -->
  <defs>
    <style>
      .st0 {
        fill: #0f1213;
      }

      .st1 {
        fill: #6a805c;
      }
    </style>
  </defs>
  <path class="st0" d="M491.92,243.75h11.69v10.39c3.46-4.28,7.13-7.36,11.01-9.23,3.87-1.87,8.18-2.8,12.92-2.8,10.39,0,17.41,3.62,21.05,10.87,2.01,3.96,3.01,9.64,3.01,17.02v46.96h-12.51v-46.14c0-4.47-.66-8.07-1.98-10.8-2.19-4.56-6.15-6.84-11.9-6.84-2.92,0-5.31.3-7.18.89-3.37,1-6.34,3.01-8.89,6.02-2.05,2.42-3.38,4.91-4,7.49-.62,2.57-.92,6.25-.92,11.04v38.35h-12.3v-73.21Z"/>
  <polygon class="st0" points="575.8 243.75 595.35 303.36 615.79 243.75 629.25 243.75 601.64 316.97 588.51 316.97 561.51 243.75 575.8 243.75"/>
  <rect class="st0" x="639.78" y="244.1" width="12.51" height="72.87"/>
  <rect class="st0" x="639.78" y="223.31" width="12.51" height="12.33"/>
  <path class="st0" d="M673.35,223.31h12.44v20.44h11.69v10.05h-11.69v47.78c0,2.55.87,4.26,2.6,5.13.96.5,2.55.75,4.79.75.59,0,1.23-.01,1.91-.03.68-.02,1.48-.08,2.39-.17v9.71c-1.41.41-2.88.71-4.41.89-1.53.18-3.18.27-4.96.27-5.74,0-9.64-1.47-11.69-4.41-2.05-2.94-3.08-6.76-3.08-11.45v-48.47h-9.91v-10.05h9.91v-20.44Z"/>
  <path class="st0" d="M749.02,272.6c2.82-.36,4.72-1.55,5.67-3.55.55-1.09.82-2.67.82-4.72,0-4.19-1.49-7.23-4.48-9.12-2.99-1.89-7.26-2.84-12.82-2.84-6.43,0-10.98,1.73-13.67,5.2-1.5,1.91-2.48,4.76-2.94,8.54h-11.48c.23-9.02,3.16-15.3,8.78-18.83,5.63-3.53,12.16-5.3,19.59-5.3,8.61,0,15.61,1.64,20.99,4.92,5.33,3.28,8,8.39,8,15.31v42.18c0,1.28.26,2.3.79,3.08.52.78,1.63,1.16,3.32,1.16.55,0,1.16-.03,1.85-.1.68-.07,1.41-.17,2.19-.31v9.09c-1.91.55-3.37.89-4.38,1.02-1,.14-2.37.21-4.1.21-4.24,0-7.31-1.5-9.23-4.51-1-1.6-1.71-3.85-2.12-6.77-2.51,3.28-6.11,6.13-10.8,8.55-4.69,2.42-9.87,3.62-15.52,3.62-6.79,0-12.34-2.06-16.65-6.19-4.31-4.12-6.46-9.29-6.46-15.48,0-6.79,2.12-12.05,6.36-15.79,4.24-3.74,9.8-6.04,16.68-6.9l19.62-2.46ZM723.11,305.89c2.6,2.05,5.67,3.08,9.23,3.08,4.33,0,8.52-1,12.58-3.01,6.84-3.33,10.25-8.77,10.25-16.34v-9.91c-1.5.96-3.44,1.76-5.81,2.39-2.37.64-4.69,1.09-6.97,1.37l-7.45.96c-4.47.59-7.82,1.53-10.05,2.8-3.78,2.14-5.67,5.56-5.67,10.25,0,3.55,1.3,6.36,3.9,8.41"/>
  <path class="st0" d="M435.72,288.8c-2.83.36-4.72,1.55-5.67,3.55-.55,1.09-.82,2.67-.82,4.72,0,4.19,1.49,7.23,4.48,9.12,2.99,1.89,7.26,2.84,12.82,2.84,6.43,0,10.98-1.73,13.67-5.2,1.5-1.91,2.48-4.76,2.94-8.54h11.48c-.23,9.02-3.16,15.3-8.78,18.83-5.63,3.53-12.16,5.3-19.59,5.3-8.61,0-15.61-1.64-20.99-4.92-5.33-3.28-8-8.39-8-15.31v-42.18c0-1.28-.26-2.3-.79-3.08-.52-.78-1.63-1.16-3.32-1.16-.55,0-1.16.03-1.85.1-.68.07-1.41.17-2.19.31v-9.09c1.91-.55,3.37-.89,4.38-1.03,1-.14,2.37-.21,4.1-.21,4.24,0,7.31,1.5,9.23,4.51,1,1.59,1.71,3.85,2.12,6.77,2.51-3.28,6.11-6.13,10.8-8.55,4.69-2.41,9.87-3.62,15.52-3.62,6.79,0,12.34,2.06,16.65,6.19,4.31,4.12,6.46,9.29,6.46,15.48,0,6.79-2.12,12.05-6.36,15.79-4.24,3.74-9.8,6.04-16.68,6.9l-19.62,2.46ZM461.63,255.51c-2.6-2.05-5.67-3.08-9.23-3.08-4.33,0-8.52,1-12.58,3.01-6.84,3.33-10.25,8.77-10.25,16.34v9.91c1.5-.96,3.44-1.76,5.81-2.39,2.37-.64,4.69-1.09,6.97-1.37l7.45-.96c4.47-.59,7.82-1.53,10.05-2.8,3.78-2.14,5.67-5.56,5.67-10.25,0-3.55-1.3-6.36-3.9-8.41"/>
  <path class="st1" d="M375.28,245.29c0,35.51-49.53,20.54-70.9,35.03v-19.54c0-36.62,70.9-54.58,70.9-15.5"/>
  <path class="st1" d="M304.39,311.71c0-35.51,49.53-20.54,70.9-35.03v19.54c0,36.62-70.9,54.58-70.9,15.5"/>
</svg>