<?xml version="1.0" standalone="no"?>
<!DOCTYPE svg PUBLIC "-//W3C//DTD SVG 20010904//EN"
 "http://www.w3.org/TR/2001/REC-SVG-20010904/DTD/svg10.dtd">
<svg version="1.0" xmlns="http://www.w3.org/2000/svg"
 width="1024.000000pt" height="1024.000000pt" viewBox="0 0 1024.000000 1024.000000"
 preserveAspectRatio="xMidYMid meet">

<g transform="translate(0.000000,1024.000000) scale(0.100000,-0.100000)"
fill="#000000" stroke="none">
<path d="M4920 7854 c-549 -66 -974 -260 -1340 -610 -376 -360 -613 -835 -671
-1344 -17 -152 -7 -485 20 -625 89 -474 300 -869 638 -1196 338 -326 741 -527
1218 -606 154 -25 514 -25 670 0 563 93 1058 380 1408 817 591 738 637 1789
113 2574 -106 159 -190 259 -317 380 -334 318 -742 519 -1197 592 -93 15 -465
27 -542 18z m540 -309 c783 -143 1390 -736 1556 -1518 31 -149 44 -447 25
-592 -17 -129 -42 -248 -55 -264 -18 -24 -126 -67 -216 -87 -109 -24 -300 -24
-420 1 -332 68 -655 256 -936 547 -89 92 -184 211 -184 230 0 5 18 47 40 93
22 46 40 94 39 107 0 19 -3 17 -14 -12 -7 -19 -14 -29 -14 -21 -1 10 -12 12
-46 7 -32 -5 -45 -4 -45 5 0 8 -6 6 -18 -4 -29 -26 -40 -21 -66 31 -125 248
-143 569 -45 836 16 44 29 81 29 83 0 7 -38 -12 -66 -33 -32 -24 -97 -127
-417 -664 -196 -330 -246 -405 -319 -479 -60 -61 -156 -136 -164 -128 -3 3 17
32 43 66 47 57 186 282 214 345 12 27 11 30 -16 52 -86 69 -158 78 -209 27
-15 -15 -179 -238 -365 -497 -423 -591 -485 -675 -491 -676 -8 0 -68 217 -85
310 -99 543 52 1125 404 1554 71 86 233 244 316 307 266 204 574 333 915 385
121 18 485 12 610 -11z m-661 -2195 c248 -41 501 -134 771 -285 249 -140 527
-202 787 -177 138 14 205 30 328 79 98 39 174 83 248 145 26 21 47 36 47 31 0
-11 -52 -153 -88 -241 -17 -40 -49 -106 -73 -148 -46 -80 -91 -114 -150 -114
-15 0 -29 -4 -31 -8 -1 -4 -37 -16 -78 -27 -110 -27 -402 -33 -536 -10 -289
49 -482 127 -764 311 -286 186 -476 268 -760 328 -85 18 -301 35 -373 28 -50
-4 -82 11 -73 35 3 8 -2 13 -12 13 -35 1 12 18 93 34 197 39 446 41 664 6z
m-479 -319 c264 -58 499 -164 800 -364 166 -110 273 -164 415 -211 178 -58
228 -67 406 -73 169 -6 269 3 386 33 92 23 231 80 316 128 42 24 77 42 77 39
0 -2 -26 -38 -57 -78 -55 -72 -60 -75 -154 -115 -120 -49 -273 -87 -405 -100
-112 -10 -312 1 -425 25 -89 19 -92 19 -81 -1 6 -11 4 -27 -6 -48 -9 -17 -21
-43 -29 -58 -7 -14 -13 -36 -13 -47 0 -18 -3 -20 -19 -11 -24 12 -34 13 -27 1
3 -5 -6 -12 -22 -16 -26 -7 -26 -7 -5 -16 37 -14 142 -30 245 -38 188 -15 380
13 546 80 81 32 86 33 77 19 -7 -12 -190 -140 -200 -140 -4 0 5 14 20 31 14
17 25 33 23 34 -2 2 -39 -14 -83 -36 -125 -61 -233 -83 -405 -83 -107 0 -167
5 -230 19 -47 10 -97 19 -112 19 -14 1 -24 5 -21 10 3 5 0 7 -6 5 -7 -3 -12
-9 -11 -14 1 -6 -9 -13 -22 -17 -16 -6 -13 -7 12 -4 19 3 29 2 23 -1 -7 -2
-13 -10 -13 -17 0 -7 -6 -24 -12 -39 -10 -20 -20 -27 -43 -27 -24 0 -27 -2
-15 -11 12 -9 11 -10 -7 -6 -13 3 -23 1 -23 -4 0 -5 10 -9 23 -9 17 0 19 -2 8
-9 -9 -6 -24 -5 -39 0 -14 5 -27 7 -29 5 -3 -3 19 -12 49 -20 103 -30 210 -46
316 -46 67 0 101 -4 92 -9 -8 -5 -76 -22 -150 -38 -127 -26 -149 -28 -375 -28
-222 1 -250 3 -367 28 -70 15 -183 45 -250 67 -454 149 -847 481 -1092 922
l-37 67 28 8 c35 9 413 10 508 1 41 -4 56 -3 37 2 -43 10 -48 17 -21 25 17 6
19 9 8 16 -12 8 -12 10 0 18 7 5 10 14 7 20 -4 6 -2 11 4 11 7 0 10 6 7 14 -4
10 2 17 16 20 12 3 -34 3 -103 1 -135 -4 -290 -37 -421 -89 -36 -14 -69 -26
-72 -26 -7 0 -39 71 -34 76 12 13 213 76 307 98 157 35 150 34 375 32 165 -2
219 -7 305 -25z m1817 -637 c-3 -3 -12 -4 -19 -1 -8 3 -5 6 6 6 11 1 17 -2 13
-5z"/>
<path d="M3768 4663 c7 -3 16 -2 19 1 4 3 -2 6 -13 5 -11 0 -14 -3 -6 -6z"/>
<path d="M3608 4645 c-71 -14 -106 -29 -92 -37 5 -3 54 -8 109 -12 55 -3 94
-3 88 0 -7 3 -13 16 -13 29 0 13 6 26 13 28 24 10 -39 5 -105 -8z"/>
<path d="M3030 3003 c0 -5 45 -117 101 -248 55 -132 112 -268 127 -302 l26
-63 56 0 56 0 127 303 c70 166 127 305 127 310 0 4 -27 7 -59 7 l-59 0 -92
-231 c-51 -127 -96 -227 -101 -222 -4 4 -48 107 -97 228 l-89 220 -61 3 c-34
2 -62 -1 -62 -5z"/>
<path d="M3800 2700 l0 -310 235 0 235 0 0 50 0 50 -180 0 -180 0 0 80 0 80
155 0 155 0 0 50 0 50 -155 0 -156 0 3 78 3 77 173 0 172 0 0 50 0 50 -230 3
-230 3 0 -311z"/>
<path d="M4458 3000 c-1 -3 -2 -141 -2 -307 l-1 -303 57 0 58 0 2 208 3 207
163 -207 164 -208 49 0 49 0 0 310 0 310 -55 0 -55 0 -2 -212 -3 -213 -163
210 -164 210 -49 0 c-27 0 -50 -2 -51 -5z"/>
<path d="M5150 2960 l0 -49 98 -3 97 -3 3 -257 2 -258 55 0 55 0 2 258 3 257
98 0 97 0 0 53 0 52 -255 0 -255 0 0 -50z"/>
<path d="M5802 2780 l3 -225 29 -52 c50 -91 130 -128 256 -121 96 6 158 38
200 105 42 66 51 126 48 333 l-3 185 -55 0 -55 0 -5 -215 c-6 -247 -9 -257
-87 -292 -90 -40 -186 4 -212 97 -6 23 -11 122 -11 226 l0 187 -56 -2 -55 -1
3 -225z"/>
<path d="M6550 2698 l0 -308 55 0 55 0 0 100 0 100 74 0 73 0 69 -100 69 -99
68 -1 69 0 -48 68 c-26 37 -61 85 -76 107 l-29 39 34 18 c143 73 139 288 -6
353 -46 21 -71 24 -229 27 l-178 5 0 -309z m357 184 c30 -17 43 -43 43 -87 0
-83 -39 -105 -185 -105 l-105 0 0 103 c0 57 2 106 4 108 10 9 223 -7 243 -19z"/>
</g>
</svg>
